<svg width="44" height="44" viewBox="0 0 44 44" fill="none" xmlns="http://www.w3.org/2000/svg">
<circle cx="22" cy="22" r="22" fill="white"/>
<path d="M32.3022 20.936V33H30.3822L29.6143 30.152C27.7796 32.4133 25.3263 33.544 22.2543 33.544C19.0116 33.544 16.3876 32.4666 14.3823 30.312C12.3983 28.136 11.4062 25.2986 11.4062 21.8C11.4062 18.3226 12.3876 15.4426 14.3503 13.16C16.3343 10.8773 19.0436 9.73596 22.4783 9.73596C24.0569 9.73596 25.5289 10.0133 26.8942 10.568C28.2596 11.1013 29.4222 11.9546 30.3822 13.128C31.3423 14.28 31.8862 15.6453 32.0142 17.224H29.0702C28.8356 15.7306 28.1103 14.536 26.8942 13.64C25.6996 12.7226 24.2276 12.264 22.4783 12.264C20.0036 12.264 18.0409 13.1173 16.5903 14.824C15.1396 16.5093 14.4143 18.8026 14.4143 21.704C14.4143 24.5626 15.1396 26.8346 16.5903 28.52C18.0409 30.2053 19.9929 31.048 22.4463 31.048C24.7503 31.048 26.4996 30.3546 27.6943 28.968C28.9102 27.56 29.5502 25.704 29.6143 23.4H22.3183V20.936H32.3022Z" fill="black"/>
</svg>
